<svg xmlns="http://www.w3.org/2000/svg" width="680" height="330" font-family="monospace"><rect width="680" height="330" fill="#0f172a"/><text x="12" y="34" fill="#e2e8f0" font-size="24">⚡ BMS Tester</text><text x="220" y="34" fill="#94a3b8" font-size="13">v2.7 sim snapshot</text><rect x="380" y="12" width="130" height="26" rx="13" fill="#14532d"/><text x="445" y="30" fill="#fff" font-size="13" text-anchor="middle">LINK GREEN</text><rect x="516" y="12" width="70" height="26" rx="13" fill="#0e7490"/><text x="551" y="30" fill="#fff" font-size="13" font-weight="bold" text-anchor="middle">LITE</text><text x="12" y="54" fill="#64748b" font-size="12">tiles + link only · ~4.9 KB page</text><text x="12" y="112" fill="#93c5fd" font-size="14">RELAYS</text><rect x="8" y="120" width="160" height="68" rx="10" fill="#052e16" stroke="#22c55e" stroke-width="3"/><text x="88" y="150" fill="#4ade80" font-size="20" font-weight="bold" text-anchor="middle">HORN</text><text x="88" y="172" fill="#4ade80" font-size="13" text-anchor="middle">ON</text><rect x="176" y="120" width="160" height="68" rx="10" fill="#052e16" stroke="#22c55e" stroke-width="3"/><text x="256" y="150" fill="#4ade80" font-size="20" font-weight="bold" text-anchor="middle">LIGHT</text><text x="256" y="172" fill="#4ade80" font-size="13" text-anchor="middle">ON</text><rect x="344" y="120" width="160" height="68" rx="10" fill="#0f172a" stroke="#475569" stroke-width="3"/><text x="424" y="150" fill="#94a3b8" font-size="20" font-weight="bold" text-anchor="middle">FAN</text><text x="424" y="172" fill="#94a3b8" font-size="13" text-anchor="middle">OFF</text><rect x="512" y="120" width="160" height="68" rx="10" fill="#0f172a" stroke="#475569" stroke-width="3"/><text x="592" y="150" fill="#94a3b8" font-size="20" font-weight="bold" text-anchor="middle">PUMP</text><text x="592" y="172" fill="#94a3b8" font-size="13" text-anchor="middle">OFF</text><rect x="8" y="196" width="160" height="68" rx="10" fill="#0f172a" stroke="#475569" stroke-width="3"/><text x="88" y="226" fill="#94a3b8" font-size="20" font-weight="bold" text-anchor="middle">R5</text><text x="88" y="248" fill="#94a3b8" font-size="13" text-anchor="middle">OFF</text><rect x="176" y="196" width="160" height="68" rx="10" fill="#0f172a" stroke="#475569" stroke-width="3"/><text x="256" y="226" fill="#94a3b8" font-size="20" font-weight="bold" text-anchor="middle">R6</text><text x="256" y="248" fill="#94a3b8" font-size="13" text-anchor="middle">OFF</text><rect x="344" y="196" width="160" height="68" rx="10" fill="#0f172a" stroke="#475569" stroke-width="3"/><text x="424" y="226" fill="#94a3b8" font-size="20" font-weight="bold" text-anchor="middle">R7</text><text x="424" y="248" fill="#94a3b8" font-size="13" text-anchor="middle">OFF</text><rect x="512" y="196" width="160" height="68" rx="10" fill="#0f172a" stroke="#475569" stroke-width="3"/><text x="592" y="226" fill="#94a3b8" font-size="20" font-weight="bold" text-anchor="middle">R8</text><text x="592" y="248" fill="#94a3b8" font-size="13" text-anchor="middle">OFF</text><text x="12" y="318" fill="#64748b" font-size="11">meters 1 · attempts 7 · pass 0 · fail 0 · cyc 0 · act 4 · live /esp/api/state</text><rect y="300" width="680" height="30" fill="#052e16"/><text x="12" y="320" fill="#4ade80" font-size="14">names persist: HORN · LIGHT · FAN · PUMP</text></svg>